# xmcd
#
# Track frame offsets: 
#        150
#        19479
#        52151
#        85821
#        120297
#        145642
#        163488
#        184176
#        203371
#        223924
#
# Disc length: 3235 seconds
#
# Revision: 0
# Processed by: cddbd v1.5.2PL0 Copyright (c) Steve Scherf et al.
# Submitted via: ExactAudioCopy v0.90b4
#
DISCID=8f0ca10a
DTITLE=Jason Ricci and New Blood - Blood On The Road
DYEAR=2006
DGENRE=Blues
TTITLE0=Snowflakes and Horses
TTITLE1=Mellow Down Easy
TTITLE2=Down at the Juke
TTITLE3=Blues Penitentiary
TTITLE4=Marmoset > Baked Potato
TTITLE5=Roll all Day
TTITLE6=My Heads a Bad Neighborhood
TTITLE7=The World's Just Wrong
TTITLE8=The One Least in Love
TTITLE9=Walter's World
EXTD=
EXTT0=
EXTT1=
EXTT2=
EXTT3=
EXTT4=
EXTT5=
EXTT6=
EXTT7=
EXTT8=
EXTT9=
PLAYORDER=
